<svg width="256" height="256" viewBox="0 0 256 256" fill="none" xmlns="http://www.w3.org/2000/svg">
<path d="M128 234.667V138.667M213.334 138.667V179.947C213.338 183.973 212.236 187.923 210.148 191.365C208.06 194.807 205.066 197.61 201.494 199.467L137.494 232.32C134.561 233.844 131.305 234.64 128 234.64C124.695 234.64 121.439 233.844 118.507 232.32L54.5069 199.467C50.9344 197.61 47.9408 194.807 45.8528 191.365C43.7648 187.923 42.6627 183.973 42.6669 179.947V138.667M161.814 23.5733C164.47 22.0879 167.463 21.308 170.507 21.308C173.551 21.308 176.544 22.0879 179.2 23.5733L224 48.7467C227.173 50.5408 229.813 53.1452 231.649 56.2937C233.486 59.4421 234.454 63.0217 234.454 66.6667C234.454 70.3117 233.486 73.8913 231.649 77.0397C229.813 80.1882 227.173 82.7925 224 84.5867L94.0802 157.76C91.4157 159.28 88.4011 160.079 85.3335 160.079C82.266 160.079 79.2514 159.28 76.5869 157.76L32.0002 132.587C28.8274 130.793 26.1878 128.188 24.3512 125.04C22.5146 121.891 21.5469 118.312 21.5469 114.667C21.5469 111.022 22.5146 107.442 24.3512 104.294C26.1878 101.145 28.8274 98.5408 32.0002 96.7467L161.814 23.5733ZM224 132.587C227.173 130.793 229.813 128.188 231.649 125.04C233.486 121.891 234.454 118.312 234.454 114.667C234.454 111.022 233.486 107.442 231.649 104.294C229.813 101.145 227.173 98.5408 224 96.7467L94.1869 23.4667C91.5403 21.9511 88.5434 21.1537 85.4935 21.1537C82.4437 21.1537 79.4468 21.9511 76.8002 23.4667L32.0002 48.7467C28.8274 50.5408 26.1878 53.1452 24.3512 56.2937C22.5146 59.4421 21.5469 63.0217 21.5469 66.6667C21.5469 70.3116 22.5146 73.8913 24.3512 77.0397C26.1878 80.1882 28.8274 82.7925 32.0002 84.5867L161.92 157.76C164.565 159.28 167.563 160.08 170.614 160.08C173.664 160.08 176.662 159.28 179.307 157.76L224 132.587Z" stroke="#6741D9" stroke-width="4" stroke-linecap="round" stroke-linejoin="round"/>
</svg>
