<svg width="256" height="256" viewBox="0 0 256 256" fill="none" xmlns="http://www.w3.org/2000/svg">
<path d="M64 192H149.333M32 234.667H224M149.333 234.667C169.136 234.667 188.128 226.8 202.131 212.797C216.133 198.795 224 179.803 224 160C224 140.197 216.133 121.205 202.131 107.203C188.128 93.2 169.136 85.3334 149.333 85.3334H138.667M96 149.333H117.333M128 64V32C128 29.1711 126.876 26.458 124.876 24.4576C122.875 22.4572 120.162 21.3334 117.333 21.3334H96C93.171 21.3334 90.4579 22.4572 88.4575 24.4576C86.4571 26.458 85.3333 29.1711 85.3333 32V64M96 128C90.342 128 84.9158 125.752 80.9151 121.752C76.9143 117.751 74.6667 112.325 74.6667 106.667V64H138.667V106.667C138.667 112.325 136.419 117.751 132.418 121.752C128.418 125.752 122.991 128 117.333 128H96Z" stroke="#6741D9" stroke-width="4" stroke-linecap="round" stroke-linejoin="round"/>
</svg>
