<svg width="170" height="16" viewBox="0 0 170 16" fill="none" xmlns="http://www.w3.org/2000/svg">
<path d="M12.8849 5.66605H10.2287C10.1529 5.23044 10.0133 4.84455 9.80966 4.50838C9.60606 4.16747 9.35275 3.87864 9.04972 3.6419C8.74669 3.40516 8.40104 3.2276 8.01278 3.10923C7.62926 2.98612 7.21496 2.92457 6.76989 2.92457C5.97917 2.92457 5.27841 3.12344 4.66761 3.52116C4.05682 3.91415 3.5786 4.49181 3.23295 5.25412C2.88731 6.01169 2.71449 6.93736 2.71449 8.03111C2.71449 9.1438 2.88731 10.0813 3.23295 10.8436C3.58333 11.6012 4.06155 12.1741 4.66761 12.5624C5.27841 12.9459 5.9768 13.1376 6.76278 13.1376C7.19839 13.1376 7.60559 13.0808 7.98438 12.9672C8.3679 12.8488 8.71117 12.676 9.0142 12.4487C9.32197 12.2214 9.58002 11.9421 9.78835 11.6107C10.0014 11.2792 10.1482 10.9004 10.2287 10.4743L12.8849 10.4885C12.7855 11.1798 12.5701 11.8285 12.2386 12.4345C11.9119 13.0406 11.4834 13.5756 10.9531 14.0396C10.4228 14.4989 9.80256 14.8588 9.09233 15.1192C8.3821 15.3749 7.59375 15.5027 6.72727 15.5027C5.44886 15.5027 4.30777 15.2068 3.30398 14.6149C2.30019 14.0231 1.50947 13.1684 0.931818 12.051C0.354167 10.9336 0.0653409 9.59361 0.0653409 8.03111C0.0653409 6.46387 0.356534 5.12391 0.93892 4.01122C1.52131 2.8938 2.31439 2.03915 3.31818 1.4473C4.32197 0.855442 5.45833 0.559514 6.72727 0.559514C7.53693 0.559514 8.28977 0.673151 8.9858 0.900423C9.68182 1.1277 10.3021 1.4615 10.8466 1.90184C11.3911 2.33745 11.8385 2.87249 12.1889 3.50696C12.544 4.13669 12.776 4.85639 12.8849 5.66605ZM19.9428 15.5169C18.8775 15.5169 17.9542 15.2825 17.1729 14.8138C16.3917 14.345 15.7856 13.6892 15.3548 12.8464C14.9286 12.0036 14.7156 11.0188 14.7156 9.8919C14.7156 8.76501 14.9286 7.77779 15.3548 6.93025C15.7856 6.08272 16.3917 5.42457 17.1729 4.95582C17.9542 4.48707 18.8775 4.2527 19.9428 4.2527C21.0082 4.2527 21.9315 4.48707 22.7127 4.95582C23.494 5.42457 24.0977 6.08272 24.5238 6.93025C24.9547 7.77779 25.1701 8.76501 25.1701 9.8919C25.1701 11.0188 24.9547 12.0036 24.5238 12.8464C24.0977 13.6892 23.494 14.345 22.7127 14.8138C21.9315 15.2825 21.0082 15.5169 19.9428 15.5169ZM19.957 13.4572C20.5347 13.4572 21.0176 13.2986 21.4059 12.9814C21.7942 12.6594 22.083 12.2285 22.2724 11.6888C22.4665 11.149 22.5636 10.5477 22.5636 9.8848C22.5636 9.21718 22.4665 8.61349 22.2724 8.07372C22.083 7.52921 21.7942 7.09597 21.4059 6.774C21.0176 6.45203 20.5347 6.29105 19.957 6.29105C19.3652 6.29105 18.8728 6.45203 18.4798 6.774C18.0915 7.09597 17.8003 7.52921 17.6062 8.07372C17.4168 8.61349 17.3221 9.21718 17.3221 9.8848C17.3221 10.5477 17.4168 11.149 17.6062 11.6888C17.8003 12.2285 18.0915 12.6594 18.4798 12.9814C18.8728 13.2986 19.3652 13.4572 19.957 13.4572ZM29.9233 8.91179V15.3038H27.3523V4.39474H29.8097V6.24843H29.9375C30.1884 5.63764 30.5885 5.15232 31.1378 4.79247C31.6918 4.43262 32.3759 4.2527 33.1903 4.2527C33.9432 4.2527 34.599 4.41368 35.1577 4.73565C35.7211 5.05762 36.1567 5.524 36.4645 6.1348C36.777 6.74559 36.9309 7.4866 36.9261 8.35781V15.3038H34.3551V8.75554C34.3551 8.02637 34.1657 7.45582 33.7869 7.04389C33.4129 6.63196 32.8944 6.42599 32.2315 6.42599C31.7817 6.42599 31.3816 6.52542 31.0312 6.72429C30.6856 6.91842 30.4134 7.20014 30.2145 7.56946C30.0204 7.93878 29.9233 8.38622 29.9233 8.91179ZM44.9872 4.39474V6.38338H38.7159V4.39474H44.9872ZM40.2642 1.78111H42.8352V12.0226C42.8352 12.3682 42.8873 12.6334 42.9915 12.818C43.1004 12.998 43.2424 13.1211 43.4176 13.1874C43.5928 13.2536 43.7869 13.2868 44 13.2868C44.161 13.2868 44.3078 13.275 44.4403 13.2513C44.5777 13.2276 44.6818 13.2063 44.7528 13.1874L45.1861 15.1973C45.0488 15.2446 44.8523 15.2967 44.5966 15.3535C44.3456 15.4104 44.0379 15.4435 43.6733 15.453C43.0294 15.4719 42.4493 15.3749 41.9332 15.1618C41.4171 14.944 41.0076 14.6078 40.7045 14.1533C40.4063 13.6987 40.2595 13.1305 40.2642 12.4487V1.78111ZM47.1374 15.3038V4.39474H49.6303V6.21292H49.744C49.9428 5.58319 50.2837 5.09787 50.7667 4.75696C51.2544 4.41131 51.8107 4.23849 52.4357 4.23849C52.5778 4.23849 52.7364 4.24559 52.9116 4.2598C53.0915 4.26927 53.2406 4.28584 53.359 4.30951V6.67457C53.2501 6.63669 53.0773 6.60355 52.8406 6.57514C52.6085 6.542 52.3836 6.52542 52.1658 6.52542C51.6971 6.52542 51.2757 6.62722 50.9016 6.83082C50.5323 7.02968 50.2411 7.30667 50.0281 7.66179C49.815 8.0169 49.7085 8.42647 49.7085 8.89048V15.3038H47.1374ZM59.3764 15.5169C58.3111 15.5169 57.3878 15.2825 56.6065 14.8138C55.8253 14.345 55.2192 13.6892 54.7884 12.8464C54.3622 12.0036 54.1491 11.0188 54.1491 9.8919C54.1491 8.76501 54.3622 7.77779 54.7884 6.93025C55.2192 6.08272 55.8253 5.42457 56.6065 4.95582C57.3878 4.48707 58.3111 4.2527 59.3764 4.2527C60.4418 4.2527 61.3651 4.48707 62.1463 4.95582C62.9276 5.42457 63.5313 6.08272 63.9574 6.93025C64.3883 7.77779 64.6037 8.76501 64.6037 9.8919C64.6037 11.0188 64.3883 12.0036 63.9574 12.8464C63.5313 13.6892 62.9276 14.345 62.1463 14.8138C61.3651 15.2825 60.4418 15.5169 59.3764 15.5169ZM59.3906 13.4572C59.9683 13.4572 60.4512 13.2986 60.8395 12.9814C61.2277 12.6594 61.5166 12.2285 61.706 11.6888C61.9001 11.149 61.9972 10.5477 61.9972 9.8848C61.9972 9.21718 61.9001 8.61349 61.706 8.07372C61.5166 7.52921 61.2277 7.09597 60.8395 6.774C60.4512 6.45203 59.9683 6.29105 59.3906 6.29105C58.7988 6.29105 58.3063 6.45203 57.9134 6.774C57.5251 7.09597 57.2339 7.52921 57.0398 8.07372C56.8504 8.61349 56.7557 9.21718 56.7557 9.8848C56.7557 10.5477 56.8504 11.149 57.0398 11.6888C57.2339 12.2285 57.5251 12.6594 57.9134 12.9814C58.3063 13.2986 58.7988 13.4572 59.3906 13.4572ZM69.3569 0.758378V15.3038H66.7859V0.758378H69.3569Z" fill="#6741D9"/>
<path d="M77.0753 15.3038V0.758378H86.3935V2.96719H79.7102V6.91605H85.7543V9.12486H79.7102V15.3038H77.0753ZM88.6804 15.3038V4.39474H91.2514V15.3038H88.6804ZM89.973 2.84645C89.5658 2.84645 89.2154 2.7115 88.9219 2.44162C88.6283 2.167 88.4815 1.83792 88.4815 1.4544C88.4815 1.06614 88.6283 0.737071 88.9219 0.467184C89.2154 0.192563 89.5658 0.055253 89.973 0.055253C90.3849 0.055253 90.7353 0.192563 91.0241 0.467184C91.3177 0.737071 91.4645 1.06614 91.4645 1.4544C91.4645 1.83792 91.3177 2.167 91.0241 2.44162C90.7353 2.7115 90.3849 2.84645 89.973 2.84645ZM96.4663 8.91179V15.3038H93.8952V4.39474H96.3526V6.24843H96.4805C96.7314 5.63764 97.1315 5.15232 97.6808 4.79247C98.2347 4.43262 98.9189 4.2527 99.7333 4.2527C100.486 4.2527 101.142 4.41368 101.701 4.73565C102.264 5.05762 102.7 5.524 103.007 6.1348C103.32 6.74559 103.474 7.4866 103.469 8.35781V15.3038H100.898V8.75554C100.898 8.02637 100.709 7.45582 100.33 7.04389C99.9558 6.63196 99.4374 6.42599 98.7745 6.42599C98.3247 6.42599 97.9246 6.52542 97.5742 6.72429C97.2286 6.91842 96.9563 7.20014 96.7575 7.56946C96.5633 7.93878 96.4663 8.38622 96.4663 8.91179ZM109.222 15.524C108.531 15.524 107.908 15.4009 107.354 15.1547C106.805 14.9037 106.369 14.5344 106.047 14.0467C105.73 13.559 105.571 12.9577 105.571 12.2428C105.571 11.6272 105.685 11.1182 105.912 10.7158C106.14 10.3133 106.45 9.99133 106.843 9.74986C107.236 9.50838 107.678 9.32609 108.171 9.20298C108.668 9.07514 109.182 8.98281 109.712 8.92599C110.351 8.8597 110.87 8.80052 111.267 8.74843C111.665 8.69162 111.954 8.60639 112.134 8.49275C112.319 8.37438 112.411 8.19209 112.411 7.94588V7.90326C112.411 7.36823 112.252 6.95393 111.935 6.66037C111.618 6.36681 111.161 6.22003 110.564 6.22003C109.935 6.22003 109.435 6.35734 109.066 6.63196C108.701 6.90658 108.455 7.23092 108.327 7.60497L105.926 7.26406C106.116 6.60118 106.428 6.0472 106.864 5.60213C107.3 5.15232 107.832 4.81614 108.462 4.59361C109.092 4.36633 109.788 4.2527 110.55 4.2527C111.076 4.2527 111.599 4.31425 112.12 4.43736C112.641 4.56046 113.116 4.76406 113.547 5.04815C113.978 5.32751 114.324 5.70866 114.584 6.19162C114.849 6.67457 114.982 7.27826 114.982 8.0027V15.3038H112.51V13.8053H112.425C112.269 14.1083 112.049 14.3924 111.765 14.6575C111.485 14.9179 111.132 15.1286 110.706 15.2896C110.285 15.4459 109.79 15.524 109.222 15.524ZM109.89 13.6348C110.406 13.6348 110.853 13.533 111.232 13.3294C111.611 13.1211 111.902 12.8464 112.105 12.5055C112.314 12.1646 112.418 11.7929 112.418 11.3905V10.105C112.337 10.1713 112.2 10.2328 112.006 10.2896C111.817 10.3464 111.604 10.3962 111.367 10.4388C111.13 10.4814 110.896 10.5193 110.664 10.5524C110.432 10.5856 110.23 10.614 110.06 10.6376C109.676 10.6897 109.333 10.775 109.03 10.8933C108.727 11.0117 108.488 11.1774 108.313 11.3905C108.138 11.5988 108.05 11.8687 108.05 12.2001C108.05 12.6736 108.223 13.0311 108.569 13.2726C108.914 13.5141 109.355 13.6348 109.89 13.6348ZM120.138 8.91179V15.3038H117.567V4.39474H120.025V6.24843H120.152C120.403 5.63764 120.803 5.15232 121.353 4.79247C121.907 4.43262 122.591 4.2527 123.405 4.2527C124.158 4.2527 124.814 4.41368 125.373 4.73565C125.936 5.05762 126.372 5.524 126.679 6.1348C126.992 6.74559 127.146 7.4866 127.141 8.35781V15.3038H124.57V8.75554C124.57 8.02637 124.381 7.45582 124.002 7.04389C123.628 6.63196 123.109 6.42599 122.446 6.42599C121.997 6.42599 121.596 6.52542 121.246 6.72429C120.9 6.91842 120.628 7.20014 120.429 7.56946C120.235 7.93878 120.138 8.38622 120.138 8.91179ZM134.513 15.5169C133.424 15.5169 132.489 15.2778 131.708 14.7996C130.931 14.3214 130.332 13.6608 129.911 12.818C129.494 11.9705 129.286 10.9951 129.286 9.8919C129.286 8.78395 129.499 7.8062 129.925 6.95866C130.351 6.10639 130.953 5.44351 131.729 4.97003C132.51 4.49181 133.434 4.2527 134.499 4.2527C135.384 4.2527 136.168 4.41605 136.85 4.74275C137.536 5.06472 138.083 5.52164 138.49 6.11349C138.898 6.70061 139.13 7.38717 139.186 8.17315H136.729C136.63 7.64758 136.393 7.20961 136.019 6.85923C135.65 6.50412 135.155 6.32656 134.534 6.32656C134.009 6.32656 133.547 6.46861 133.15 6.7527C132.752 7.03205 132.442 7.43451 132.219 7.96008C132.001 8.48565 131.892 9.11539 131.892 9.84929C131.892 10.5927 132.001 11.2319 132.219 11.7669C132.437 12.2972 132.742 12.7068 133.135 12.9956C133.533 13.2797 133.999 13.4217 134.534 13.4217C134.913 13.4217 135.252 13.3507 135.55 13.2087C135.853 13.0619 136.106 12.8512 136.31 12.5766C136.514 12.3019 136.653 11.9681 136.729 11.5751H139.186C139.125 12.3469 138.898 13.0311 138.505 13.6277C138.112 14.2196 137.577 14.6836 136.9 15.0197C136.222 15.3512 135.427 15.5169 134.513 15.5169ZM146.127 15.5169C145.033 15.5169 144.089 15.2896 143.293 14.8351C142.503 14.3758 141.894 13.7271 141.468 12.8891C141.042 12.0463 140.829 11.0543 140.829 9.91321C140.829 8.79105 141.042 7.8062 141.468 6.95866C141.899 6.10639 142.5 5.44351 143.272 4.97003C144.044 4.49181 144.951 4.2527 145.992 4.2527C146.665 4.2527 147.299 4.3616 147.896 4.5794C148.497 4.79247 149.027 5.12391 149.487 5.57372C149.951 6.02353 150.315 6.59645 150.58 7.29247C150.845 7.98376 150.978 8.80762 150.978 9.76406V10.5524H142.036V8.81946H148.513C148.509 8.32703 148.402 7.88906 148.194 7.50554C147.986 7.11728 147.694 6.81188 147.32 6.58934C146.951 6.36681 146.52 6.25554 146.028 6.25554C145.502 6.25554 145.04 6.38338 144.643 6.63906C144.245 6.89001 143.935 7.22145 143.712 7.63338C143.495 8.04058 143.383 8.48802 143.379 8.97571V10.4885C143.379 11.123 143.495 11.6675 143.727 12.122C143.959 12.5718 144.283 12.9175 144.7 13.1589C145.116 13.3957 145.604 13.5141 146.163 13.5141C146.537 13.5141 146.875 13.462 147.178 13.3578C147.481 13.2489 147.744 13.0903 147.967 12.882C148.189 12.6736 148.357 12.4156 148.471 12.1078L150.871 12.3777C150.72 13.0122 150.431 13.5661 150.005 14.0396C149.584 14.5084 149.044 14.873 148.386 15.1334C147.728 15.3891 146.975 15.5169 146.127 15.5169Z" fill="white"/>
<path d="M163.066 8.75838L160.645 15.3038H159.623L157.202 8.75838H158.293L160.1 13.9743H160.168L161.975 8.75838H163.066ZM164.376 15.3038V14.5368L167.257 11.3834C167.595 11.0141 167.873 10.693 168.092 10.4203C168.311 10.1447 168.473 9.88622 168.578 9.64474C168.686 9.40042 168.74 9.14474 168.74 8.8777C168.74 8.57088 168.666 8.30525 168.518 8.08082C168.373 7.85639 168.174 7.68309 167.922 7.56094C167.669 7.43878 167.385 7.3777 167.069 7.3777C166.734 7.3777 166.441 7.4473 166.191 7.5865C165.944 7.72287 165.752 7.91463 165.616 8.16179C165.483 8.40895 165.416 8.69872 165.416 9.03111H164.41C164.41 8.51974 164.528 8.07088 164.764 7.68451C165 7.29815 165.321 6.99701 165.727 6.78111C166.136 6.5652 166.595 6.45724 167.103 6.45724C167.615 6.45724 168.068 6.5652 168.463 6.78111C168.858 6.99701 169.167 7.28821 169.392 7.65469C169.616 8.02116 169.728 8.42883 169.728 8.8777C169.728 9.19872 169.67 9.51264 169.554 9.81946C169.44 10.1234 169.241 10.4629 168.957 10.8379C168.676 11.2101 168.285 11.6646 167.785 12.2016L165.825 14.2982V14.3663H169.882V15.3038H164.376Z" fill="#E9ECEF"/>
</svg>
